<svg xmlns="http://www.w3.org/2000/svg"  viewBox="0 0 48 48" width="48px" height="48px"><path fill="#64717c" d="M11.026,38.001c-0.552,0-1-0.447-1-0.999c0-0.553,0.447-1,0.999-1.001L37,35.976	c0.267,0,0.518-0.104,0.707-0.294c0.189-0.188,0.292-0.44,0.292-0.707L37.976,13c0-0.551-0.449-0.999-1-0.999c0,0-0.001,0-0.001,0	L11,12.026c0,0,0,0-0.001,0c-0.552,0-1-0.447-1-0.999c0-0.553,0.447-1,0.999-1.001l25.975-0.025c0.001,0,0.002,0,0.003,0	c1.653,0,2.999,1.344,3,2.997l0.023,21.975c0,0.802-0.311,1.555-0.876,2.122c-0.566,0.567-1.319,0.88-2.121,0.881L11.026,38.001	C11.026,38.001,11.026,38.001,11.026,38.001z"/><linearGradient id="mJihhJhcSuTDkIgZEe4upa" x1="9.494" x2="12.423" y1="6.105" y2="15.626" gradientUnits="userSpaceOnUse"><stop offset="0" stop-color="#2aa4f4"/><stop offset="1" stop-color="#007ad9"/></linearGradient><path fill="url(#mJihhJhcSuTDkIgZEe4upa)" d="M14.004,15.969L8.031,16c-1.099,0.001-1.999-0.897-2-1.996L6,8.031	c-0.001-1.099,0.897-1.999,1.996-2L13.969,6c1.099-0.001,1.999,0.897,2,1.996L16,13.969C16.001,15.068,15.103,15.968,14.004,15.969z"/><linearGradient id="mJihhJhcSuTDkIgZEe4upb" x1="25.494" x2="28.423" y1="6.105" y2="15.626" gradientUnits="userSpaceOnUse"><stop offset="0" stop-color="#2aa4f4"/><stop offset="1" stop-color="#007ad9"/></linearGradient><path fill="url(#mJihhJhcSuTDkIgZEe4upb)" d="M30.004,15.969L24.031,16c-1.099,0.001-1.999-0.897-2-1.996L22,8.031	c-0.001-1.099,0.897-1.999,1.996-2L29.969,6c1.099-0.001,1.999,0.897,2,1.996L32,13.969C32.001,15.068,31.103,15.968,30.004,15.969z"/><linearGradient id="mJihhJhcSuTDkIgZEe4upc" x1="37.494" x2="40.423" y1="19.105" y2="28.625" gradientUnits="userSpaceOnUse"><stop offset="0" stop-color="#2aa4f4"/><stop offset="1" stop-color="#007ad9"/></linearGradient><path fill="url(#mJihhJhcSuTDkIgZEe4upc)" d="M42.004,28.969L36.031,29c-1.099,0.001-1.999-0.897-2-1.996L34,21.031	c-0.001-1.099,0.897-1.999,1.996-2L41.969,19c1.099-0.001,1.999,0.897,2,1.996L44,26.969C44.001,28.068,43.103,28.968,42.004,28.969	z"/><linearGradient id="mJihhJhcSuTDkIgZEe4upd" x1="25.494" x2="28.423" y1="32.105" y2="41.626" gradientUnits="userSpaceOnUse"><stop offset="0" stop-color="#2aa4f4"/><stop offset="1" stop-color="#007ad9"/></linearGradient><path fill="url(#mJihhJhcSuTDkIgZEe4upd)" d="M30.004,41.969L24.031,42c-1.099,0.001-1.999-0.897-2-1.996L22,34.031	c-0.001-1.099,0.897-1.999,1.996-2L29.969,32c1.099-0.001,1.999,0.897,2,1.996L32,39.969C32.001,41.068,31.103,41.968,30.004,41.969	z"/><linearGradient id="mJihhJhcSuTDkIgZEe4upe" x1="9.494" x2="12.423" y1="32.105" y2="41.626" gradientUnits="userSpaceOnUse"><stop offset="0" stop-color="#2aa4f4"/><stop offset="1" stop-color="#007ad9"/></linearGradient><path fill="url(#mJihhJhcSuTDkIgZEe4upe)" d="M14.004,41.969L8.031,42c-1.099,0.001-1.999-0.897-2-1.996L6,34.031	c-0.001-1.099,0.897-1.999,1.996-2L13.969,32c1.099-0.001,1.999,0.897,2,1.996L16,39.969C16.001,41.068,15.103,41.968,14.004,41.969	z"/></svg>