<svg xmlns="http://www.w3.org/2000/svg"  viewBox="0 0 48 48" width="48px" height="48px"><radialGradient id="fjYuPY8YNczpX8SBizi~xa" cx="10.332" cy="652.819" r="40.041" gradientTransform="matrix(1 0 0 -1 0 662)" gradientUnits="userSpaceOnUse"><stop offset="0" stop-color="#6fcefc"/><stop offset="1" stop-color="#167cf7"/></radialGradient><path fill="url(#fjYuPY8YNczpX8SBizi~xa)" d="M4,24C4,12.955,12.955,4,24,4s20,8.955,20,20s-8.955,20-20,20S4,35.045,4,24z"/><radialGradient id="fjYuPY8YNczpX8SBizi~xb" cx="11.265" cy="653.52" r="40.155" gradientTransform="matrix(1 0 0 -1 0 662)" gradientUnits="userSpaceOnUse"><stop offset=".001" stop-color="#54c0f5"/><stop offset=".998" stop-color="#0b69db"/></radialGradient><path fill="url(#fjYuPY8YNczpX8SBizi~xb)" d="M41,24c0-3.239-0.673-6.291-1.839-9h2.682c-0.348-0.689-0.725-1.36-1.148-2h-2.512	C35.138,7.584,29.921,4,24,4S12.862,7.584,9.817,13H7.305c-0.423,0.64-0.8,1.311-1.148,2h2.682C7.673,17.709,7,20.761,7,24	s0.673,6.291,1.839,9H6.157c0.348,0.689,0.725,1.36,1.148,2h2.512c3.045,5.416,8.262,9,14.183,9s11.138-3.584,14.183-9h2.512	c0.423-0.64,0.8-1.311,1.148-2h-2.682C40.327,30.291,41,27.239,41,24z M39,24c0,3.28-0.747,6.349-2.029,9h-5.793	C31.721,30.167,32,27.053,32,24s-0.279-6.167-0.822-9h5.793C38.253,17.651,39,20.72,39,24z M24,42c-1.69,0-3.491-2.637-4.674-7	h9.349C27.491,39.363,25.69,42,24,42z M18.848,33C18.321,30.413,18,27.371,18,24s0.321-6.413,0.848-9h10.304	C29.679,17.587,30,20.629,30,24s-0.321,6.413-0.848,9H18.848z M24,6c1.69,0,3.491,2.637,4.674,7h-9.349C20.509,8.637,22.31,6,24,6z M35.847,13h-5.111c-0.626-2.499-1.479-4.684-2.552-6.273C31.263,7.803,33.929,10.032,35.847,13z M19.816,6.727	c-1.073,1.59-1.926,3.774-2.552,6.273h-5.111C14.071,10.032,16.737,7.803,19.816,6.727z M9,24c0-3.28,0.747-6.349,2.029-9h5.793	C16.279,17.833,16,20.947,16,24s0.279,6.167,0.822,9h-5.793C9.747,30.349,9,27.28,9,24z M12.153,35h5.111	c0.626,2.499,1.479,4.684,2.552,6.273C16.737,40.197,14.071,37.968,12.153,35z M28.184,41.273c1.073-1.59,1.926-3.774,2.552-6.273	h5.111C33.929,37.968,31.263,40.197,28.184,41.273z"/><path d="M33.676,18.768l-1.304,3.774l-1.302-3.774h-4.437v2.395c-0.201-0.382-0.433-0.744-0.732-1.061 c-0.921-0.977-2.128-1.472-3.588-1.472c-1.529,0-2.786,0.513-3.736,1.526c-0.069,0.074-0.118,0.161-0.182,0.238v-1.157l-0.654-0.24 c-0.661-0.243-1.464-0.367-2.385-0.367c-1.57,0-2.878,0.514-3.885,1.528c-1.005,1.012-1.515,2.33-1.515,3.917 c0,1.503,0.462,2.74,1.372,3.675c0.919,0.941,2.165,1.419,3.705,1.419c1.118,0,2.059-0.181,2.797-0.537l0.564-0.273v-0.872 c0.062,0.072,0.109,0.154,0.176,0.223c0.937,0.968,2.151,1.459,3.609,1.459c1.492,0,2.729-0.506,3.677-1.503 c0.32-0.337,0.565-0.722,0.776-1.129v2.488h3.676v-1.407l0.498,1.407h2.94l0.458-1.329v1.329h3.837V18.768H33.676z M16.89,25.17 c-0.45,0.264-0.937,0.393-1.486,0.393c-0.484,0-0.83-0.126-1.088-0.398c-0.273-0.288-0.4-0.676-0.4-1.222 c0-0.575,0.137-0.982,0.429-1.282c0.287-0.293,0.656-0.43,1.163-0.43c0.521,0,0.983,0.119,1.376,0.354l0.396,0.236 c-0.067,0.377-0.105,0.77-0.105,1.186c0,0.332,0.032,0.646,0.078,0.952L16.89,25.17z M22.965,25.238 c-0.187,0.23-0.403,0.324-0.749,0.324c-0.323,0-0.534-0.099-0.73-0.342c-0.235-0.291-0.354-0.732-0.354-1.312 c0-0.573,0.122-1.019,0.363-1.327c0.195-0.25,0.418-0.351,0.768-0.351c0.325,0,0.528,0.093,0.704,0.322 c0.222,0.291,0.34,0.771,0.34,1.39C23.306,24.524,23.191,24.96,22.965,25.238z" opacity=".05"/><g opacity=".07"><path d="M22.313,19.129c-1.386,0-2.52,0.46-3.371,1.368c-0.506,0.54-0.843,1.193-1.047,1.93v-2.841l-0.327-0.12 c-0.606-0.223-1.351-0.336-2.212-0.336c-1.433,0-2.62,0.464-3.53,1.38c-0.908,0.915-1.369,2.115-1.369,3.565 c0,1.369,0.414,2.488,1.23,3.326c0.82,0.841,1.946,1.268,3.347,1.268c1.043,0,1.91-0.164,2.579-0.487l0.282-0.137v-2.523 c0.202,0.7,0.536,1.323,1.035,1.84c0.839,0.867,1.933,1.307,3.25,1.307c1.35,0,2.465-0.453,3.314-1.348 c0.842-0.887,1.269-2.059,1.269-3.483c0-1.389-0.413-2.531-1.227-3.395C24.715,19.572,23.63,19.129,22.313,19.129z M17.143,25.602 c-0.529,0.31-1.098,0.461-1.739,0.461c-0.623,0-1.098-0.182-1.451-0.555c-0.361-0.381-0.537-0.894-0.537-1.565 c0-0.704,0.187-1.237,0.571-1.631c0.382-0.391,0.879-0.581,1.521-0.581c0.611,0,1.161,0.143,1.633,0.424l0.716,0.428 c-0.109,0.446-0.183,0.913-0.183,1.423c0,0.427,0.056,0.823,0.139,1.203L17.143,25.602z M23.354,25.553 c-0.282,0.348-0.644,0.509-1.138,0.509c-0.474,0-0.829-0.167-1.119-0.528c-0.31-0.383-0.466-0.93-0.466-1.626 c0-0.688,0.158-1.238,0.47-1.635c0.29-0.37,0.659-0.542,1.161-0.542c0.48,0,0.83,0.165,1.101,0.518 c0.294,0.384,0.443,0.954,0.443,1.694C23.806,24.643,23.653,25.185,23.354,25.553z"/><polygon points="34.032,19.268 32.371,24.075 30.714,19.268 27.134,19.268 27.134,28.525 29.81,28.525 29.81,24.71 31.161,28.525 33.392,28.525 34.706,24.711 34.706,28.525 37.543,28.525 37.543,19.268"/></g><path fill="#fff" d="M17.396,27.732c-0.603,0.292-1.39,0.438-2.361,0.438c-1.267,0-2.263-0.373-2.988-1.117 s-1.089-1.737-1.089-2.977c0-1.321,0.408-2.392,1.224-3.213c0.816-0.821,1.875-1.232,3.176-1.232c0.807,0,1.486,0.102,2.039,0.305 v1.791c-0.553-0.33-1.183-0.495-1.889-0.495c-0.775,0-1.401,0.244-1.878,0.731c-0.476,0.487-0.714,1.147-0.714,1.98 c0,0.799,0.225,1.435,0.674,1.909s1.054,0.711,1.814,0.711c0.726,0,1.39-0.176,1.992-0.53V27.732z"/><path fill="#fff" d="M22.181,28.169c-1.182,0-2.146-0.385-2.891-1.155c-0.744-0.77-1.117-1.772-1.117-3.009 c0-1.305,0.379-2.361,1.135-3.167s1.758-1.209,3.006-1.209c1.179,0,2.132,0.386,2.859,1.158c0.728,0.771,1.091,1.789,1.091,3.052 c0,1.298-0.377,2.344-1.131,3.139C24.378,27.772,23.395,28.169,22.181,28.169z M22.262,21.23c-0.652,0-1.171,0.245-1.555,0.734 c-0.384,0.49-0.576,1.138-0.576,1.944c0,0.817,0.192,1.464,0.576,1.94s0.887,0.714,1.509,0.714c0.641,0,1.149-0.231,1.525-0.694 c0.377-0.462,0.564-1.104,0.564-1.926c0-0.856-0.182-1.522-0.547-1.998C23.395,21.468,22.896,21.23,22.262,21.23z"/><path fill="#fff" d="M37.043,28.025h-1.837v-4.941c0-0.534,0.023-1.123,0.069-1.768h-0.046 c-0.096,0.506-0.183,0.872-0.26,1.094l-1.935,5.615h-1.521l-1.969-5.557c-0.054-0.149-0.141-0.533-0.26-1.151h-0.052 c0.05,0.814,0.075,1.528,0.075,2.142v4.566h-1.676v-8.258h2.724l1.688,4.895c0.135,0.392,0.232,0.785,0.294,1.18h0.034 c0.104-0.457,0.213-0.854,0.328-1.192l1.688-4.883h2.654V28.025z"/></svg>