<svg xmlns="http://www.w3.org/2000/svg" xmlns:xlink="http://www.w3.org/1999/xlink" viewBox="0,0,256,256" width="48px" height="48px" fill-rule="nonzero"><defs><linearGradient x1="4.491" y1="18.976" x2="15.13" y2="28.678" gradientUnits="userSpaceOnUse" id="color-1"><stop offset="0" stop-color="#33bef0"></stop><stop offset="1" stop-color="#0a85d9"></stop></linearGradient><linearGradient x1="31.983" y1="6.182" x2="40.579" y2="14.437" gradientUnits="userSpaceOnUse" id="color-2"><stop offset="0" stop-color="#33bef0"></stop><stop offset="1" stop-color="#0a85d9"></stop></linearGradient><linearGradient x1="32.454" y1="32.26" x2="42.411" y2="42.642" gradientUnits="userSpaceOnUse" id="color-3"><stop offset="0" stop-color="#33bef0"></stop><stop offset="1" stop-color="#0a85d9"></stop></linearGradient><linearGradient x1="7.8793" y1="1.597" x2="17.2873" y2="19.2896" gradientUnits="userSpaceOnUse" id="color-4"><stop offset="0" stop-color="#32bdef"></stop><stop offset="1" stop-color="#1ea2e4"></stop></linearGradient></defs><g fill="none" fill-rule="nonzero" stroke="none" stroke-width="1" stroke-linecap="butt" stroke-linejoin="miter" stroke-miterlimit="10" stroke-dasharray="" stroke-dashoffset="0" font-family="none" font-weight="none" font-size="none" text-anchor="none" style="mix-blend-mode: normal"><g transform="scale(5.33333,5.33333)"><path d="M38.526,12.292l-3.052,-2.584l-10.401,12.292h-14.073v4h14.072l10.402,12.292l3.052,-2.584l-9.906,-11.708z" fill="#64717c"></path><circle cx="10" cy="24" r="6" fill="url(#color-1)"></circle><circle cx="37" cy="11" r="6" fill="url(#color-2)"></circle><circle cx="37" cy="37" r="6" fill="url(#color-3)"></circle></g></g><g fill="url(#color-4)" fill-rule="nonzero" stroke="none" stroke-width="1" stroke-linecap="butt" stroke-linejoin="miter" stroke-miterlimit="10" stroke-dasharray="" stroke-dashoffset="0" font-family="none" font-weight="none" font-size="none" text-anchor="none" style="mix-blend-mode: normal"><g transform="translate(96,88.82) scale(4.44444,4.44444)" id="overlay"><path d="M18,3c-0.227,0 -0.451,0.016 -0.672,0.04c-1.352,-1.709 -3.441,-2.809 -5.79,-2.809c-3.106,0 -5.759,1.92 -6.85,4.635c-2.621,0.199 -4.688,2.384 -4.688,5.057c0,2.804 2.273,5.077 5.077,5.077h12.923c3.314,0 6,-2.686 6,-6c0,-3.314 -2.686,-6 -6,-6z"></path></g></g></svg>